<?xml version="1.0" ?><!DOCTYPE svg  PUBLIC '-//W3C//DTD SVG 1.1//EN'  'http://www.w3.org/Graphics/SVG/1.1/DTD/svg11.dtd'><svg enable-background="new 0 0 512 512" height="512px" id="Слой_1" version="1.1" viewBox="0 0 512 512" width="512px" xml:space="preserve" xmlns="http://www.w3.org/2000/svg" xmlns:xlink="http://www.w3.org/1999/xlink"><path d="M267.967,0.009c-139.258,0-209.52,100.184-209.52,183.743c0,50.561,19.108,95.56,60.06,112.371  c6.703,2.75,12.733,0.094,14.671-7.374c1.375-5.156,4.563-18.188,5.984-23.563c1.968-7.406,1.188-10-4.203-16.438  c-11.812-13.937-19.358-32.03-19.358-57.654c0-74.341,55.419-140.901,144.336-140.901c78.715,0,121.963,48.279,121.963,112.746  c0,84.778-37.404,156.371-92.934,156.371c-30.67,0-53.606-25.438-46.278-56.654c8.827-37.279,25.889-77.497,25.889-104.371  c0-24.093-12.874-44.155-39.545-44.155c-31.342,0-56.528,32.562-56.528,76.122c0,27.749,9.359,46.561,9.359,46.561  s-32.092,136.371-37.717,160.246c-11.203,47.562,1.078,114.934,1.078,114.934s45.248-51.498,57.95-97.715  c3.594-13.096,20.625-80.842,20.625-80.842c10.171,19.498,39.919,36.653,71.604,36.653c94.215,0,158.148-86.185,158.148-201.586  C453.553,81.287,379.916,0.009,267.967,0.009z" id="Pinterest_2_"/></svg>